<?xml version="1.0" encoding="utf-8"?>
<!-- Generator: Adobe Illustrator 18.1.1, SVG Export Plug-In . SVG Version: 6.00 Build 0)  -->
<svg version="1.1" id="Layer_1" xmlns="http://www.w3.org/2000/svg" xmlns:xlink="http://www.w3.org/1999/xlink" x="0px" y="0px"
	 viewBox="0 0 720 430" style="enable-background:new 0 0 720 430;" xml:space="preserve">
<style type="text/css">
	.st0{fill:#BB9D6E;}
</style>
<g>
	<path class="st0" d="M526.7,243.2C526.8,243.2,526.8,243.2,526.7,243.2c31.1-9.3,63.3-22,94.2-38.8c49.6-28.9,75,1.1,56.6,46.4
		c-15.7,42.9-99.1,122.7-171.8,140.9c-27.9-19.7-82.5-33.1-145.6-33.4c-63.1,0.2-117.8,13.7-145.6,33.4
		c-72.7-18.2-156.2-98-171.9-140.9c-18.4-45.3,7-75.3,56.6-46.4c31,16.9,63.2,29.6,94.2,38.9c66.6,20.1,127.7,25,159.7,25l17.6,0
		C402.4,267.9,462,262.7,526.7,243.2z"/>
	<g id="XMLID_1_">
		<path class="st0" d="M436.9,41.5c25.9,13,68.1,135,84.5,185c-62.7,18.2-119.8,23.1-150.9,23.5l-17.6,0
			c-31.2,0-89.8-4.7-154.3-23.4c16.4-50,58.6-172.1,84.5-185.1c29.7-14.9,55.3,9.7,75.8,12.2h-4c1.6,0.2,3.3,0.2,5,0.1
			c1.7,0.1,3.4,0.1,5-0.1h-4C381.6,51.3,407.1,26.7,436.9,41.5z M426.7,136.2c0-5.4-4.4-9.8-9.8-9.8c-5,0-9.1,3.7-9.7,8.5l-30.2-4.4
			l-13.3-27c3.6-1.5,6.1-5,6.1-9.1c0-5.4-4.4-9.8-9.8-9.8s-9.8,4.4-9.8,9.8c0,4.1,2.6,7.7,6.2,9.1l-13.3,26.9l-30.3,4.4
			c-0.6-4.8-4.7-8.5-9.7-8.5c-5.4,0-9.8,4.4-9.8,9.8c0,5.4,4.4,9.8,9.8,9.8c3.3,0,6.3-1.7,8-4.2l21.5,21l-5.4,31.5
			c-1.2-0.5-2.5-0.8-3.9-0.8c-5.4,0-9.8,4.4-9.8,9.8c0,5.4,4.4,9.8,9.8,9.8c5.4,0,9.8-4.4,9.8-9.8c0-2-0.6-3.9-1.7-5.5l28.6-15.1
			l28.5,15c-1.1,1.6-1.7,3.5-1.7,5.5c0,5.4,4.4,9.8,9.8,9.8c5.4,0,9.8-4.4,9.8-9.8c0-5.4-4.4-9.8-9.8-9.8c-1.4,0-2.6,0.3-3.8,0.8
			l-5.4-31.4l21.4-20.9c1.8,2.5,4.7,4.1,8,4.1C422.3,146,426.7,141.7,426.7,136.2z"/>
	</g>
</g>
<g>
</g>
<g>
</g>
<g>
</g>
<g>
</g>
<g>
</g>
<g>
</g>
<g>
</g>
<g>
</g>
<g>
</g>
<g>
</g>
<g>
</g>
<g>
</g>
<g>
</g>
<g>
</g>
<g>
</g>
</svg>
