<?xml version="1.0" encoding="utf-8"?>
<!-- Generator: Adobe Illustrator 18.1.1, SVG Export Plug-In . SVG Version: 6.00 Build 0)  -->
<svg version="1.1" id="Layer_1" xmlns="http://www.w3.org/2000/svg" xmlns:xlink="http://www.w3.org/1999/xlink" x="0px" y="0px"
	 viewBox="0 0 720 720" style="enable-background:new 0 0 720 720;" xml:space="preserve">
<style type="text/css">
	.st0{fill:#BB9D6E;}
</style>
<g id="Your_Icon_2_">
	<path class="st0" d="M131.9,689.2c8.1,0.7,15.3-4.8,16.8-12.6c-0.7,8.6,5.6,16.2,14.2,17c8.6,0.8,16.3-5.6,17.1-14.2
		c0.8-9.2,3-32.7,4-41.2c0.2,0,0.4,0,0.7,0c56,4.6,119.3-37.1,131.8-125.8c5.4-38.3-4.4-76.5-27.7-107.4
		c-15.8-21-36.6-36.8-60.3-46.6c1.7-3.5,3-7.1,3.6-11.2c1.4-10.1-1.2-20.2-7.3-28.4c-6.1-8.2-15.1-13.5-25.2-14.9
		c-18.8-2.7-36.9,9.1-42.2,27.4c-0.5,1.7-0.8,3.4-1.1,5.2c-0.6,4-0.3,7.9,0.3,11.7c-4.1,0.5-8.2,1.1-12.3,1.9l-10-27.2
		c10.1-7.1,17.8-17.4,21.3-29.7c1.7-6,2.4-12.3,2-18.6L153,205c-0.4-6.5-2-12.7-4.5-18.5l37.2-30.6c0.9,0.5,1.7,1,2.6,1.4
		c13.2,6.5,28.1,7.5,42,2.7l65.9-22.4c17.1-5.8,30.2-19.6,35.1-37c0-0.1,0-0.2,0.1-0.3l32.7-0.7c5.4,13.3,15.9,24.5,30.1,30.4
		l64.4,26.5c13.4,5.5,28,5.5,41.4,0.1l14.5,18.4c-3,4.6-5.4,9.7-7,15.1c-2.1,7.3-2.6,14.9-1.6,22.5l9.5,69c2.8,20.6,16.8,37,35,43.9
		l-0.8,22.8c-48.3,1.6-94.9,27.1-120.9,71.9c-8.3,14.2-14.2,28.3-18.1,41.9c-17.3,60.5,5.7,113.1,44,138.4c0.2,0.1,0.4,0.3,0.5,0.4
		c-4.5,7.4-17.1,27.5-22.1,35.4c-4.6,7.4-2.5,17.1,4.9,21.7c7.3,4.6,17,2.4,21.7-4.9l0-0.1c-0.5,1-1.1,2-1.4,3.1
		c-1.9,6.5,0.7,13.8,6.7,17.6c7.3,4.6,17,2.4,21.7-4.9c1.9-3,17.4-27.5,22.7-36.4c0.2,0.1,0.4,0.1,0.7,0.2
		c50.2,25.3,124.5,10.5,169.4-67c33.8-58.3,22.2-130.5-23.7-175.8c2.9-2.6,5.5-5.5,7.6-9.1c1.6-2.7,2.8-5.7,3.7-8.7
		c4.8-16.9-2.4-34.8-17.6-43.6c-18.3-10.6-41.7-4.4-52.3,13.9c-1.6,2.7-2.8,5.7-3.7,8.7c-0.2,0.8-0.3,1.5-0.5,2.3
		c-4-1.1-8-2.1-12-2.8l0.8-23.2c19.5-4.4,35.3-19,40.9-38.4c2.1-7.3,2.6-14.9,1.6-22.5l-9.5-68.9c-4.1-30-31.9-51.1-61.9-47
		c-5,0.7-9.8,2.1-14.3,4.1l-14-17.8c2.2-3.2,4.2-6.7,5.7-10.4c11.7-28.4-2.1-60.3-29.9-71.7l-64.4-26.5c-13.6-5.6-28.5-5.6-42.1,0.1
		c-13.6,5.7-24.1,16.2-29.7,29.8c-0.8,2-1.5,3.9-2.1,5.9c-0.4,1.3-0.7,2.7-0.9,4L330.6,69c-0.1-0.3-0.1-0.7-0.3-1
		c-4.7-13.9-14.6-25.1-27.7-31.6c-13.2-6.5-28.1-7.4-42-2.7L194.8,56c-17.1,5.8-30.2,19.6-35.2,37c-3.1,10.8-2.8,22.1,0.8,32.7
		c0.9,2.6,2,5.1,3.2,7.5l-35.6,29.4c-9.9-6.5-21.5-9.6-33.5-8.8c-23.1,1.5-42.9,17.5-49.3,39.8c-1.7,6-2.4,12.3-2,18.6l4.5,69.4
		c1.9,29.6,27.1,52.2,56.6,51.3l9.8,26.7c-38.4,17.1-68.8,50.5-80.8,92.7c-1.8,6.3-3.2,12.9-4.1,19.6C16.8,560.5,66,618,121.1,629.1
		c0.3,0,0.5,0.1,0.7,0.2c-1.2,10.3-3.9,39.2-4.2,42.8C116.8,680.7,123.2,688.4,131.9,689.2z M652.1,550.1
		c-26.6,45.9-79.1,79.4-128,54.7c-15-7.6-32.6-3.4-40.5,9.6c7.3-13.3,2.2-30.7-11.8-39.9c-45.7-30.2-42.7-92.4-16.1-138.3
		c31.4-54.1,101-72.6,155.2-41.2C665,426.4,683.5,496,652.1,550.1z M624.2,358.4c1.9-3.3,6.1-4.4,9.4-2.5c2.7,1.6,4,4.8,3.2,7.8
		c-0.2,0.5-0.4,1.1-0.7,1.6c-1.9,3.3-6.1,4.4-9.3,2.5c0,0,0,0,0,0c0,0,0,0,0,0C623.5,365.9,622.3,361.7,624.2,358.4z M583.4,202.1
		l9.5,68.9c0.4,3.3,0.2,6.5-0.7,9.6c-1.5,5.4-5,10-9.5,13l0.8-22.3c0.3-8.7-6.5-16-15.2-16.2c-7.4-0.3-13.7,4.6-15.7,11.4
		c-0.3,1.2-0.5,2.5-0.6,3.8l-0.6,18.7c-2.6-3.2-4.5-7.2-5.1-11.6l-9.5-69c-0.2-1.6-0.3-3.3-0.2-4.9l10.8,13.7
		c5.4,6.8,15.3,8,22.1,2.6c6.8-5.4,8-15.3,2.6-22.1l-12.6-16C571.4,181.7,581.8,190.2,583.4,202.1z M405.9,57.6
		c5.8-2.4,12.2-2.4,18,0l64.3,26.5c10.2,4.2,15.9,14.7,14.2,25.3l-7.6-9.6c-5.4-6.8-15.3-8-22.1-2.6c-2.7,2.1-4.5,5-5.4,8
		c-1.3,4.7-0.5,9.9,2.8,14.1l7.9,10c-2.6-0.1-5.2-0.6-7.7-1.7L406,101c-1.4-0.6-2.7-1.3-3.9-2.1l11.8-0.2c8.7-0.2,15.5-7.3,15.4-16
		c-0.2-8.7-7.4-15.6-16-15.4l-18.6,0.4C397.2,63.2,401.1,59.6,405.9,57.6z M204.9,85.8l65.9-22.4c5.9-2,12.3-1.6,17.9,1.2
		c2.6,1.3,4.9,3,6.8,5.1l-12.4,0.3c-7.1,0.1-13,4.9-14.8,11.4c-0.4,1.5-0.6,3-0.6,4.6c0.2,8.7,7.4,15.6,16,15.4l12.2-0.2
		c-2.7,3-6.1,5.4-10,6.8l-65.9,22.4c-1.5,0.5-3.1,0.9-4.6,1.1l11.4-9.4c6.7-5.5,7.7-15.4,2.1-22.1c-5.5-6.7-15.4-7.7-22.1-2.1
		L189.4,112C187.7,101,194.3,89.4,204.9,85.8z M79.2,279.6l-4.5-69.4c-0.8-12.8,9.4-24.2,21.9-25c1.3-0.1,2.6,0,3.9,0.1L89.9,194
		c-2.6,2.1-4.3,4.8-5.1,7.8c-1.4,4.8-0.4,10.2,3,14.3c5.5,6.7,15.4,7.7,22.1,2.1l11.8-9.7l4.5,67.9c0.2,2.7-0.1,5.4-0.8,8
		c-0.6,2.3-1.6,4.3-2.9,6.2l-5.6-15.3c-3-8.2-12-12.3-20.2-9.3c-4.9,1.8-8.4,5.8-9.7,10.5c-0.9,3.1-0.8,6.5,0.4,9.7l4.6,12.6
		C84.9,295.1,79.8,288.1,79.2,279.6z M188.6,345.9c-0.6-0.9-1.7-2.6-1.3-5.1c0.5-3.8,4-6.3,7.7-5.8c2.4,0.3,3.9,1.8,4.5,2.7
		c0.6,0.9,1.6,2.6,1.3,5.1c-0.1,0.3-0.1,0.6-0.2,0.9c-0.9,3.2-4.1,5.3-7.5,4.8l0,0c0,0,0,0,0,0C190.6,348.1,189.2,346.7,188.6,345.9
		z M60.4,476.2c8.7-62,66.3-105.3,128.3-96.6c30,4.2,56.6,19.9,74.8,44.1c18.2,24.2,25.9,54.1,21.7,84.1
		c-9.8,69.5-56.7,102.2-98.1,98.8c-16.7-1.3-31.3,9.1-33.9,24c1.7-15-9.5-29.2-26-32.5C73.6,587.5,53,528.7,60.4,476.2z"/>
</g>
<g>
</g>
<g>
</g>
<g>
</g>
<g>
</g>
<g>
</g>
<g>
</g>
<g>
</g>
<g>
</g>
<g>
</g>
<g>
</g>
<g>
</g>
<g>
</g>
<g>
</g>
<g>
</g>
<g>
</g>
</svg>
