<?xml version="1.0" encoding="utf-8"?>
<!-- Generator: Adobe Illustrator 18.1.1, SVG Export Plug-In . SVG Version: 6.00 Build 0)  -->
<svg version="1.1" id="Layer_1" xmlns="http://www.w3.org/2000/svg" xmlns:xlink="http://www.w3.org/1999/xlink" x="0px" y="0px"
	 viewBox="0 0 658 720" style="enable-background:new 0 0 658 720;" xml:space="preserve">
<style type="text/css">
	.st0{fill:#87724F;}
</style>
<g id="Your_Icon">
	<path class="st0" d="M600.2,492.9c-4.8,0-9.1,1.7-12.9,4l-80.9-136.3l80.9-136.3c3.9,2.3,8.1,4,12.9,4c14.2,0,25.7-11.5,25.7-25.8
		c0-14.2-11.5-25.7-25.7-25.7c-14.2,0-25.7,11.5-25.7,25.7c0,0.1,0.1,0.2,0.1,0.3l-158.1,2L338.9,66.6c7.8-4.4,13.3-12.5,13.3-22.1
		c0-14.2-11.5-25.7-25.7-25.7c-14.2,0-25.7,11.5-25.7,25.7c0,9.6,5.5,17.7,13.3,22.1l-77.5,138.2l-158.2-2c0-0.1,0.1-0.2,0.1-0.3
		c0-14.2-11.5-25.7-25.7-25.7c-14.2,0-25.7,11.5-25.7,25.7c0,14.2,11.5,25.8,25.7,25.8c4.8,0,9-1.7,12.9-4l80.9,136.3L65.7,496.9
		c-3.9-2.3-8.1-4-12.9-4c-14.2,0-25.7,11.5-25.7,25.7c0,14.2,11.5,25.8,25.7,25.8c14.2,0,25.7-11.5,25.7-25.8c0-0.1-0.1-0.2-0.1-0.3
		l158.2-2l77.5,138.2c-7.8,4.4-13.3,12.5-13.3,22.1c0,14.2,11.5,25.7,25.7,25.7c14.2,0,25.7-11.5,25.7-25.7
		c0-9.6-5.5-17.7-13.3-22.1l77.5-138.2l158.1,2c0,0.1-0.1,0.2-0.1,0.3c0,14.2,11.5,25.8,25.7,25.8c14.2,0,25.7-11.5,25.7-25.8
		C625.9,504.4,614.4,492.9,600.2,492.9z"/>
</g>
<g>
</g>
<g>
</g>
<g>
</g>
<g>
</g>
<g>
</g>
<g>
</g>
<g>
</g>
<g>
</g>
<g>
</g>
<g>
</g>
<g>
</g>
<g>
</g>
<g>
</g>
<g>
</g>
<g>
</g>
</svg>
